<svg width="262" height="27" viewBox="0 0 262 27" fill="none" xmlns="http://www.w3.org/2000/svg">
<path d="M7.18 26H1.78C1.324 26 0.988 25.904 0.772 25.712C0.58 25.496 0.484 25.16 0.484 24.704V1.376C0.484 0.92 0.58 0.595999 0.772 0.403999C0.988 0.187999 1.324 0.079999 1.78 0.079999H5.524C5.98 0.079999 6.364 0.151999 6.676 0.295998C7.012 0.439999 7.336 0.692 7.648 1.052L14.632 9.044V1.376C14.632 0.92 14.728 0.595999 14.92 0.403999C15.136 0.187999 15.472 0.079999 15.928 0.079999H21.328C21.784 0.079999 22.108 0.187999 22.3 0.403999C22.516 0.595999 22.624 0.92 22.624 1.376V24.704C22.624 25.16 22.516 25.496 22.3 25.712C22.108 25.904 21.784 26 21.328 26H15.928C15.472 26 15.136 25.904 14.92 25.712C14.728 25.496 14.632 25.16 14.632 24.704V20.276L8.476 12.824V24.704C8.476 25.16 8.368 25.496 8.152 25.712C7.96 25.904 7.636 26 7.18 26ZM45.5895 26H28.8855C28.4295 26 28.0935 25.904 27.8775 25.712C27.6855 25.496 27.5895 25.16 27.5895 24.704V1.376C27.5895 0.92 27.6855 0.595999 27.8775 0.403999C28.0935 0.187999 28.4295 0.079999 28.8855 0.079999H45.5895C46.0455 0.079999 46.3695 0.187999 46.5615 0.403999C46.7775 0.595999 46.8855 0.92 46.8855 1.376V5.588C46.8855 6.044 46.7775 6.38 46.5615 6.596C46.3695 6.788 46.0455 6.884 45.5895 6.884H35.6535V9.656H42.6735C43.1295 9.656 43.4535 9.764 43.6455 9.98C43.8615 10.172 43.9695 10.496 43.9695 10.952V14.804C43.9695 15.26 43.8615 15.596 43.6455 15.812C43.4535 16.004 43.1295 16.1 42.6735 16.1H35.6535V19.196H45.5895C46.0455 19.196 46.3695 19.304 46.5615 19.52C46.7775 19.712 46.8855 20.036 46.8855 20.492V24.704C46.8855 25.16 46.7775 25.496 46.5615 25.712C46.3695 25.904 46.0455 26 45.5895 26ZM58.8842 24.704C58.8842 25.16 58.7762 25.496 58.5602 25.712C58.3682 25.904 58.0442 26 57.5882 26H52.1162C51.6602 26 51.3242 25.904 51.1082 25.712C50.9162 25.496 50.8202 25.16 50.8202 24.704V20.852C50.8202 19.748 50.9162 18.92 51.1082 18.368C51.3002 17.816 51.6602 17.168 52.1882 16.424L55.1042 12.5L52.1882 8.576C51.6362 7.832 51.2642 7.184 51.0722 6.632C50.9042 6.08 50.8202 5.252 50.8202 4.148V1.376C50.8202 0.92 50.9162 0.595999 51.1082 0.403999C51.3242 0.187999 51.6602 0.079999 52.1162 0.079999H57.6602C58.1162 0.079999 58.4402 0.187999 58.6322 0.403999C58.8482 0.595999 58.9562 0.92 58.9562 1.376V3.86C58.9562 4.1 58.9682 4.352 58.9922 4.616C59.0162 4.88 59.1122 5.132 59.2802 5.372L60.8642 7.64C60.9842 7.832 61.1042 7.988 61.2242 8.108C61.3682 8.204 61.5362 8.252 61.7282 8.252H62.1602C62.3522 8.252 62.5082 8.204 62.6282 8.108C62.7482 7.988 62.8802 7.832 63.0242 7.64L64.6442 5.372C64.8122 5.132 64.9082 4.88 64.9322 4.616C64.9562 4.352 64.9682 4.1 64.9682 3.86V1.376C64.9682 0.92 65.0642 0.595999 65.2562 0.403999C65.4722 0.187999 65.8082 0.079999 66.2642 0.079999H71.7362C72.1922 0.079999 72.5162 0.187999 72.7082 0.403999C72.9242 0.595999 73.0322 0.92 73.0322 1.376V4.148C73.0322 5.252 72.9362 6.08 72.7442 6.632C72.5522 7.184 72.1922 7.832 71.6642 8.576L68.7482 12.536L71.6642 16.424C72.2162 17.168 72.5762 17.816 72.7442 18.368C72.9362 18.92 73.0322 19.748 73.0322 20.852V24.704C73.0322 25.16 72.9242 25.496 72.7082 25.712C72.5162 25.904 72.1922 26 71.7362 26H66.2642C65.8082 26 65.4722 25.904 65.2562 25.712C65.0642 25.496 64.9682 25.16 64.9682 24.704V21.14C64.9682 20.9 64.9562 20.648 64.9322 20.384C64.9082 20.12 64.8122 19.868 64.6442 19.628L63.0602 17.36C62.9162 17.144 62.7842 16.988 62.6642 16.892C62.5442 16.796 62.3882 16.748 62.1962 16.748H61.6922C61.5002 16.748 61.3442 16.796 61.2242 16.892C61.1042 16.988 60.9722 17.144 60.8282 17.36L59.2082 19.628C59.0402 19.868 58.9442 20.12 58.9202 20.384C58.8962 20.648 58.8842 20.9 58.8842 21.14V24.704ZM99.7551 19.196C99.7551 20.3 99.5871 21.308 99.2511 22.22C98.9391 23.108 98.3631 23.876 97.5231 24.524C96.7071 25.148 95.5791 25.64 94.1391 26C92.6991 26.36 90.8631 26.54 88.6311 26.54C86.3991 26.54 84.5631 26.36 83.1231 26C81.6831 25.64 80.5431 25.148 79.7031 24.524C78.8871 23.876 78.3111 23.108 77.9751 22.22C77.6631 21.308 77.5071 20.3 77.5071 19.196V1.376C77.5071 0.92 77.6031 0.595999 77.7951 0.403999C78.0111 0.187999 78.3471 0.079999 78.8031 0.079999H84.4551C84.9111 0.079999 85.2351 0.187999 85.4271 0.403999C85.6431 0.595999 85.7511 0.92 85.7511 1.376V17.792C85.7511 18.272 85.9311 18.68 86.2911 19.016C86.6511 19.328 87.4551 19.484 88.7031 19.484C89.9751 19.484 90.7911 19.328 91.1511 19.016C91.5111 18.68 91.6911 18.272 91.6911 17.792V1.376C91.6911 0.92 91.7871 0.595999 91.9791 0.403999C92.1951 0.187999 92.5311 0.079999 92.9871 0.079999H98.4591C98.9151 0.079999 99.2391 0.187999 99.4311 0.403999C99.6471 0.595999 99.7551 0.92 99.7551 1.376V19.196ZM116.571 26H105.195C104.739 26 104.403 25.904 104.187 25.712C103.995 25.496 103.899 25.16 103.899 24.704V20.492C103.899 20.036 103.995 19.712 104.187 19.52C104.403 19.304 104.739 19.196 105.195 19.196H114.879C115.191 19.196 115.419 19.1 115.563 18.908C115.731 18.692 115.815 18.44 115.815 18.152C115.815 17.744 115.731 17.444 115.563 17.252C115.419 17.06 115.191 16.952 114.879 16.928L109.479 16.172C107.799 15.932 106.443 15.38 105.411 14.516C104.403 13.652 103.899 12.212 103.899 10.196V6.416C103.899 4.376 104.559 2.816 105.879 1.736C107.199 0.631999 109.023 0.079999 111.351 0.079999H121.431C121.887 0.079999 122.211 0.187999 122.402 0.403999C122.618 0.595999 122.727 0.92 122.727 1.376V5.66C122.727 6.116 122.618 6.452 122.402 6.668C122.211 6.86 121.887 6.956 121.431 6.956H113.043C112.731 6.956 112.491 7.064 112.323 7.28C112.155 7.472 112.071 7.724 112.071 8.036C112.071 8.348 112.155 8.612 112.323 8.828C112.491 9.044 112.731 9.164 113.043 9.188L118.407 9.908C120.087 10.148 121.443 10.7 122.475 11.564C123.507 12.428 124.023 13.868 124.023 15.884V19.664C124.023 21.704 123.351 23.276 122.007 24.38C120.687 25.46 118.875 26 116.571 26ZM174.478 26H168.646C168.19 26 167.854 25.904 167.638 25.712C167.446 25.496 167.35 25.16 167.35 24.704V7.028H162.058C161.602 7.028 161.266 6.932 161.05 6.74C160.858 6.524 160.762 6.188 160.762 5.732V1.376C160.762 0.92 160.858 0.595999 161.05 0.403999C161.266 0.187999 161.602 0.079999 162.058 0.079999H181.066C181.522 0.079999 181.846 0.187999 182.038 0.403999C182.254 0.595999 182.362 0.92 182.362 1.376V5.732C182.362 6.188 182.254 6.524 182.038 6.74C181.846 6.932 181.522 7.028 181.066 7.028H175.774V24.704C175.774 25.16 175.666 25.496 175.45 25.712C175.258 25.904 174.934 26 174.478 26ZM203.863 26H187.159C186.703 26 186.367 25.904 186.151 25.712C185.959 25.496 185.863 25.16 185.863 24.704V1.376C185.863 0.92 185.959 0.595999 186.151 0.403999C186.367 0.187999 186.703 0.079999 187.159 0.079999H203.863C204.319 0.079999 204.643 0.187999 204.835 0.403999C205.051 0.595999 205.159 0.92 205.159 1.376V5.588C205.159 6.044 205.051 6.38 204.835 6.596C204.643 6.788 204.319 6.884 203.863 6.884H193.927V9.656H200.947C201.403 9.656 201.727 9.764 201.919 9.98C202.135 10.172 202.243 10.496 202.243 10.952V14.804C202.243 15.26 202.135 15.596 201.919 15.812C201.727 16.004 201.403 16.1 200.947 16.1H193.927V19.196H203.863C204.319 19.196 204.643 19.304 204.835 19.52C205.051 19.712 205.159 20.036 205.159 20.492V24.704C205.159 25.16 205.051 25.496 204.835 25.712C204.643 25.904 204.319 26 203.863 26ZM218.814 7.64L217.122 13.112H222.774L221.082 7.64C220.986 7.424 220.878 7.268 220.758 7.172C220.662 7.076 220.542 7.028 220.398 7.028H219.498C219.354 7.028 219.222 7.076 219.102 7.172C219.006 7.268 218.91 7.424 218.814 7.64ZM216.762 24.704C216.762 25.16 216.654 25.496 216.438 25.712C216.246 25.904 215.922 26 215.466 26H210.174C209.718 26 209.382 25.904 209.166 25.712C208.974 25.496 208.878 25.16 208.878 24.704V15.2C208.878 14.48 208.986 13.652 209.202 12.716C209.442 11.78 209.802 10.688 210.282 9.44L213.414 1.268C213.558 0.859998 213.774 0.559999 214.062 0.368C214.374 0.175999 214.77 0.079999 215.25 0.079999H224.934C225.39 0.079999 225.762 0.175999 226.05 0.368C226.362 0.559999 226.59 0.859998 226.734 1.268L229.866 9.44C230.346 10.688 230.694 11.78 230.91 12.716C231.15 13.652 231.27 14.48 231.27 15.2V24.704C231.27 25.16 231.162 25.496 230.946 25.712C230.754 25.904 230.43 26 229.974 26H224.538C224.058 26 223.698 25.904 223.458 25.712C223.242 25.496 223.134 25.16 223.134 24.704V19.664H216.762V24.704ZM242.374 26H237.01C236.554 26 236.218 25.904 236.002 25.712C235.81 25.496 235.714 25.16 235.714 24.704V1.376C235.714 0.92 235.81 0.595999 236.002 0.403999C236.218 0.187999 236.554 0.079999 237.01 0.079999H242.806C243.19 0.079999 243.502 0.163999 243.742 0.331998C244.006 0.499999 244.246 0.775999 244.462 1.16L247.702 7.028C247.822 7.244 247.918 7.4 247.99 7.496C248.086 7.592 248.206 7.64 248.35 7.64H248.674C248.818 7.64 248.926 7.592 248.998 7.496C249.094 7.4 249.202 7.244 249.322 7.028L252.526 1.16C252.742 0.775999 252.97 0.499999 253.21 0.331998C253.474 0.163999 253.798 0.079999 254.182 0.079999H260.014C260.47 0.079999 260.794 0.187999 260.986 0.403999C261.202 0.595999 261.31 0.92 261.31 1.376V24.704C261.31 25.16 261.202 25.496 260.986 25.712C260.794 25.904 260.47 26 260.014 26H254.47C254.014 26 253.678 25.904 253.462 25.712C253.27 25.496 253.174 25.16 253.174 24.704V12.032L251.05 15.956C250.834 16.364 250.57 16.664 250.258 16.856C249.97 17.024 249.598 17.108 249.142 17.108H247.702C247.246 17.108 246.862 17.024 246.55 16.856C246.262 16.664 246.01 16.364 245.794 15.956L243.67 12.032V24.704C243.67 25.16 243.562 25.496 243.346 25.712C243.154 25.904 242.83 26 242.374 26Z" fill="white"/>
<path d="M135.701 24.704C135.701 25.16 135.593 25.496 135.377 25.712C135.185 25.904 134.861 26 134.405 26H128.933C128.477 26 128.141 25.904 127.925 25.712C127.733 25.496 127.637 25.16 127.637 24.704V20.852C127.637 19.748 127.733 18.92 127.925 18.368C128.117 17.816 128.477 17.168 129.005 16.424L131.921 12.5L129.005 8.576C128.453 7.832 128.081 7.184 127.889 6.632C127.721 6.08 127.637 5.252 127.637 4.148V1.376C127.637 0.92 127.733 0.595999 127.925 0.403999C128.141 0.187999 128.477 0.079999 128.933 0.079999H134.477C134.933 0.079999 135.257 0.187999 135.449 0.403999C135.665 0.595999 135.773 0.92 135.773 1.376V3.86C135.773 4.1 135.785 4.352 135.809 4.616C135.833 4.88 135.929 5.132 136.097 5.372L137.681 7.64C137.801 7.832 137.921 7.988 138.041 8.108C138.185 8.204 138.353 8.252 138.545 8.252H138.977C139.169 8.252 139.325 8.204 139.445 8.108C139.565 7.988 139.697 7.832 139.841 7.64L141.461 5.372C141.629 5.132 141.725 4.88 141.749 4.616C141.773 4.352 141.785 4.1 141.785 3.86V1.376C141.785 0.92 141.881 0.595999 142.073 0.403999C142.289 0.187999 142.625 0.079999 143.081 0.079999H148.553C149.009 0.079999 149.333 0.187999 149.525 0.403999C149.741 0.595999 149.849 0.92 149.849 1.376V4.148C149.849 5.252 149.753 6.08 149.561 6.632C149.369 7.184 149.009 7.832 148.481 8.576L145.565 12.536L148.481 16.424C149.033 17.168 149.393 17.816 149.561 18.368C149.753 18.92 149.849 19.748 149.849 20.852V24.704C149.849 25.16 149.741 25.496 149.525 25.712C149.333 25.904 149.009 26 148.553 26H143.081C142.625 26 142.289 25.904 142.073 25.712C141.881 25.496 141.785 25.16 141.785 24.704V21.14C141.785 20.9 141.773 20.648 141.749 20.384C141.725 20.12 141.629 19.868 141.461 19.628L139.877 17.36C139.733 17.144 139.601 16.988 139.481 16.892C139.361 16.796 139.205 16.748 139.013 16.748H138.509C138.317 16.748 138.161 16.796 138.041 16.892C137.921 16.988 137.789 17.144 137.645 17.36L136.025 19.628C135.857 19.868 135.761 20.12 135.737 20.384C135.713 20.648 135.701 20.9 135.701 21.14V24.704Z" fill="#02FFEA"/>
</svg>
