<svg width="177" height="28" viewBox="0 0 177 28" fill="none" xmlns="http://www.w3.org/2000/svg">
<path d="M13.508 27H2.132C1.676 27 1.34 26.904 1.124 26.712C0.932 26.496 0.836 26.16 0.836 25.704V21.492C0.836 21.036 0.932 20.712 1.124 20.52C1.34 20.304 1.676 20.196 2.132 20.196H11.816C12.128 20.196 12.356 20.1 12.5 19.908C12.668 19.692 12.752 19.44 12.752 19.152C12.752 18.744 12.668 18.444 12.5 18.252C12.356 18.06 12.128 17.952 11.816 17.928L6.416 17.172C4.736 16.932 3.38 16.38 2.348 15.516C1.34 14.652 0.836 13.212 0.836 11.196V7.416C0.836 5.376 1.496 3.816 2.816 2.736C4.136 1.632 5.96 1.08 8.288 1.08H18.368C18.824 1.08 19.148 1.188 19.34 1.404C19.556 1.596 19.664 1.92 19.664 2.376V6.66C19.664 7.116 19.556 7.452 19.34 7.668C19.148 7.86 18.824 7.956 18.368 7.956H9.98C9.668 7.956 9.428 8.064 9.26 8.28C9.092 8.472 9.008 8.724 9.008 9.036C9.008 9.348 9.092 9.612 9.26 9.828C9.428 10.044 9.668 10.164 9.98 10.188L15.344 10.908C17.024 11.148 18.38 11.7 19.412 12.564C20.444 13.428 20.96 14.868 20.96 16.884V20.664C20.96 22.704 20.288 24.276 18.944 25.38C17.624 26.46 15.812 27 13.508 27ZM42.8981 27H26.1941C25.7381 27 25.4021 26.904 25.1861 26.712C24.9941 26.496 24.8981 26.16 24.8981 25.704V2.376C24.8981 1.92 24.9941 1.596 25.1861 1.404C25.4021 1.188 25.7381 1.08 26.1941 1.08H42.8981C43.3541 1.08 43.6781 1.188 43.8701 1.404C44.0861 1.596 44.1941 1.92 44.1941 2.376V6.588C44.1941 7.044 44.0861 7.38 43.8701 7.596C43.6781 7.788 43.3541 7.884 42.8981 7.884H32.9621V10.656H39.9821C40.4381 10.656 40.7621 10.764 40.9541 10.98C41.1701 11.172 41.2781 11.496 41.2781 11.952V15.804C41.2781 16.26 41.1701 16.596 40.9541 16.812C40.7621 17.004 40.4381 17.1 39.9821 17.1H32.9621V20.196H42.8981C43.3541 20.196 43.6781 20.304 43.8701 20.52C44.0861 20.712 44.1941 21.036 44.1941 21.492V25.704C44.1941 26.16 44.0861 26.496 43.8701 26.712C43.6781 26.904 43.3541 27 42.8981 27ZM70.237 20.196C70.237 21.3 70.069 22.308 69.733 23.22C69.421 24.108 68.845 24.876 68.005 25.524C67.189 26.148 66.049 26.64 64.585 27C63.145 27.36 61.309 27.54 59.077 27.54C56.845 27.54 54.997 27.36 53.533 27C52.069 26.64 50.917 26.148 50.077 25.524C49.261 24.876 48.685 24.108 48.349 23.22C48.037 22.308 47.881 21.3 47.881 20.196V7.92C47.881 6.816 48.037 5.82 48.349 4.932C48.685 4.02 49.261 3.24 50.077 2.592C50.917 1.944 52.069 1.44 53.533 1.08C54.997 0.719999 56.845 0.539999 59.077 0.539999C61.309 0.539999 63.145 0.719999 64.585 1.08C66.049 1.44 67.189 1.944 68.005 2.592C68.845 3.24 69.421 4.02 69.733 4.932C70.069 5.82 70.237 6.816 70.237 7.92V20.196ZM56.053 18.9C56.053 19.38 56.233 19.788 56.593 20.124C56.953 20.436 57.781 20.592 59.077 20.592C60.373 20.592 61.201 20.436 61.561 20.124C61.921 19.788 62.101 19.38 62.101 18.9V9.216C62.101 8.76 61.921 8.376 61.561 8.064C61.201 7.728 60.373 7.56 59.077 7.56C57.781 7.56 56.953 7.728 56.593 8.064C56.233 8.376 56.053 8.76 56.053 9.216V18.9ZM82.8839 27H75.6119C75.1559 27 74.8199 26.904 74.6039 26.712C74.4119 26.496 74.3159 26.16 74.3159 25.704V18.396C74.3159 17.94 74.4119 17.616 74.6039 17.424C74.8199 17.208 75.1559 17.1 75.6119 17.1H82.8839C83.3399 17.1 83.6639 17.208 83.8559 17.424C84.0719 17.616 84.1799 17.94 84.1799 18.396V25.704C84.1799 26.16 84.0719 26.496 83.8559 26.712C83.6639 26.904 83.3399 27 82.8839 27ZM100.66 27H89.2843C88.8283 27 88.4923 26.904 88.2763 26.712C88.0843 26.496 87.9883 26.16 87.9883 25.704V21.492C87.9883 21.036 88.0843 20.712 88.2763 20.52C88.4923 20.304 88.8283 20.196 89.2843 20.196H98.9683C99.2803 20.196 99.5083 20.1 99.6523 19.908C99.8203 19.692 99.9043 19.44 99.9043 19.152C99.9043 18.744 99.8203 18.444 99.6523 18.252C99.5083 18.06 99.2803 17.952 98.9683 17.928L93.5683 17.172C91.8883 16.932 90.5323 16.38 89.5003 15.516C88.4923 14.652 87.9883 13.212 87.9883 11.196V7.416C87.9883 5.376 88.6483 3.816 89.9683 2.736C91.2883 1.632 93.1123 1.08 95.4403 1.08H105.52C105.976 1.08 106.3 1.188 106.492 1.404C106.708 1.596 106.816 1.92 106.816 2.376V6.66C106.816 7.116 106.708 7.452 106.492 7.668C106.3 7.86 105.976 7.956 105.52 7.956H97.1323C96.8203 7.956 96.5803 8.064 96.4123 8.28C96.2443 8.472 96.1603 8.724 96.1603 9.036C96.1603 9.348 96.2443 9.612 96.4123 9.828C96.5803 10.044 96.8203 10.164 97.1323 10.188L102.496 10.908C104.176 11.148 105.532 11.7 106.564 12.564C107.596 13.428 108.112 14.868 108.112 16.884V20.664C108.112 22.704 107.44 24.276 106.096 25.38C104.776 26.46 102.964 27 100.66 27ZM112.77 27C112.314 27 111.978 26.904 111.762 26.712C111.57 26.496 111.474 26.16 111.474 25.704V21.42C111.474 20.964 111.57 20.64 111.762 20.448C111.978 20.232 112.314 20.124 112.77 20.124H116.334V8.028H112.77C112.314 8.028 111.978 7.932 111.762 7.74C111.57 7.524 111.474 7.188 111.474 6.732V2.376C111.474 1.92 111.57 1.596 111.762 1.404C111.978 1.188 112.314 1.08 112.77 1.08H128.106C128.562 1.08 128.886 1.188 129.078 1.404C129.294 1.596 129.402 1.92 129.402 2.376V6.732C129.402 7.188 129.294 7.524 129.078 7.74C128.886 7.932 128.562 8.028 128.106 8.028H124.614V20.124H128.106C128.562 20.124 128.886 20.232 129.078 20.448C129.294 20.64 129.402 20.964 129.402 21.42V25.704C129.402 26.16 129.294 26.496 129.078 26.712C128.886 26.904 128.562 27 128.106 27H112.77ZM146.087 27H140.255C139.799 27 139.463 26.904 139.247 26.712C139.055 26.496 138.959 26.16 138.959 25.704V8.028H133.667C133.211 8.028 132.875 7.932 132.659 7.74C132.467 7.524 132.371 7.188 132.371 6.732V2.376C132.371 1.92 132.467 1.596 132.659 1.404C132.875 1.188 133.211 1.08 133.667 1.08H152.675C153.131 1.08 153.455 1.188 153.647 1.404C153.863 1.596 153.971 1.92 153.971 2.376V6.732C153.971 7.188 153.863 7.524 153.647 7.74C153.455 7.932 153.131 8.028 152.675 8.028H147.383V25.704C147.383 26.16 147.275 26.496 147.059 26.712C146.867 26.904 146.543 27 146.087 27ZM175.472 27H158.768C158.312 27 157.976 26.904 157.76 26.712C157.568 26.496 157.472 26.16 157.472 25.704V2.376C157.472 1.92 157.568 1.596 157.76 1.404C157.976 1.188 158.312 1.08 158.768 1.08H175.472C175.928 1.08 176.252 1.188 176.444 1.404C176.66 1.596 176.768 1.92 176.768 2.376V6.588C176.768 7.044 176.66 7.38 176.444 7.596C176.252 7.788 175.928 7.884 175.472 7.884H165.536V10.656H172.556C173.012 10.656 173.336 10.764 173.528 10.98C173.744 11.172 173.852 11.496 173.852 11.952V15.804C173.852 16.26 173.744 16.596 173.528 16.812C173.336 17.004 173.012 17.1 172.556 17.1H165.536V20.196H175.472C175.928 20.196 176.252 20.304 176.444 20.52C176.66 20.712 176.768 21.036 176.768 21.492V25.704C176.768 26.16 176.66 26.496 176.444 26.712C176.252 26.904 175.928 27 175.472 27Z" fill="#BCBCBC"/>
</svg>
